<svg xmlns="http://www.w3.org/2000/svg" xmlns:xlink="http://www.w3.org/1999/xlink" width="50" zoomAndPan="magnify" viewBox="0 0 37.5 37.499999" height="50" preserveAspectRatio="xMidYMid meet" version="1.0"><defs><filter x="0%" y="0%" width="100%" height="100%" id="921eecdb3c"><feColorMatrix values="0 0 0 0 1 0 0 0 0 1 0 0 0 0 1 0 0 0 1 0" color-interpolation-filters="sRGB"/></filter><clipPath id="a02c4c272a"><path d="M 2.902344 7 L 32 7 L 32 35.578125 L 2.902344 35.578125 Z M 2.902344 7 " clip-rule="nonzero"/></clipPath><clipPath id="165e700571"><path d="M 21 3.015625 L 35.46875 3.015625 L 35.46875 17 L 21 17 Z M 21 3.015625 " clip-rule="nonzero"/></clipPath><mask id="885af17df4"><g filter="url(#921eecdb3c)"><rect x="-3.75" width="45" fill="#000000" y="-3.75" height="44.999999" fill-opacity="0.1"/></g></mask><clipPath id="40908fca2b"><path d="M 0.210938 0.527344 L 6.367188 0.527344 L 6.367188 6.921875 L 0.210938 6.921875 Z M 0.210938 0.527344 " clip-rule="nonzero"/></clipPath><clipPath id="2de2fb9937"><rect x="0" width="7" y="0" height="7"/></clipPath><clipPath id="f8e476a038"><path d="M 2.902344 6 L 23 6 L 23 25 L 2.902344 25 Z M 2.902344 6 " clip-rule="nonzero"/></clipPath><mask id="51c4eb038b"><g filter="url(#921eecdb3c)"><rect x="-3.75" width="45" fill="#000000" y="-3.75" height="44.999999" fill-opacity="0.1"/></g></mask><clipPath id="f99455d2ec"><path d="M 0.902344 1 L 20.972656 1 L 20.972656 18.394531 L 0.902344 18.394531 Z M 0.902344 1 " clip-rule="nonzero"/></clipPath><clipPath id="f916a0aed7"><rect x="0" width="21" y="0" height="19"/></clipPath><clipPath id="b628aeb822"><path d="M 21 3.015625 L 32 3.015625 L 32 12 L 21 12 Z M 21 3.015625 " clip-rule="nonzero"/></clipPath><mask id="5ef62dfb56"><g filter="url(#921eecdb3c)"><rect x="-3.75" width="45" fill="#000000" y="-3.75" height="44.999999" fill-opacity="0.1"/></g></mask><clipPath id="3ff93b3bc0"><path d="M 0.789062 0.015625 L 10.972656 0.015625 L 10.972656 8.605469 L 0.789062 8.605469 Z M 0.789062 0.015625 " clip-rule="nonzero"/></clipPath><clipPath id="bf2ef15033"><rect x="0" width="11" y="0" height="9"/></clipPath><clipPath id="901235229f"><path d="M 28.855469 17.746094 L 29.257812 17.746094 L 29.257812 18.023438 L 28.855469 18.023438 Z M 28.855469 17.746094 " clip-rule="nonzero"/></clipPath><clipPath id="c2bb1324a6"><path d="M 29.234375 17.910156 C 28.496094 18.207031 29.085938 17.761719 29.085938 17.761719 " clip-rule="nonzero"/></clipPath><clipPath id="883cbef9f9"><path d="M 0.855469 0.761719 L 1.257812 0.761719 L 1.257812 1.023438 L 0.855469 1.023438 Z M 0.855469 0.761719 " clip-rule="nonzero"/></clipPath><clipPath id="7529271c79"><path d="M 1.234375 0.910156 C 0.496094 1.207031 1.085938 0.761719 1.085938 0.761719 " clip-rule="nonzero"/></clipPath><clipPath id="f7e14e5e07"><rect x="0" width="2" y="0" height="2"/></clipPath></defs><g clip-path="url(#a02c4c272a)"><path fill="#5170ff" d="M 17.058594 7.027344 C 19.480469 13.570312 24.640625 18.730469 31.1875 21.15625 C 24.640625 23.578125 19.484375 28.738281 17.058594 35.28125 C 14.636719 28.738281 9.476562 23.578125 2.933594 21.15625 C 9.476562 18.734375 14.636719 13.570312 17.058594 7.027344 Z M 17.058594 7.027344 " fill-opacity="1" fill-rule="nonzero"/></g><g clip-path="url(#165e700571)"><path fill="#5170ff" d="M 28.746094 3.015625 C 29.160156 6.585938 31.976562 9.40625 35.550781 9.816406 C 31.976562 10.230469 29.160156 13.046875 28.746094 16.621094 C 28.335938 13.046875 25.515625 10.230469 21.945312 9.816406 C 25.515625 9.40625 28.335938 6.585938 28.746094 3.015625 Z M 28.746094 3.015625 " fill-opacity="1" fill-rule="nonzero"/></g><path fill="#5170ff" d="M 26.304688 26.734375 C 26.484375 28.292969 27.710938 29.519531 29.265625 29.699219 C 27.710938 29.878906 26.484375 31.109375 26.304688 32.664062 C 26.125 31.109375 24.894531 29.878906 23.339844 29.699219 C 24.894531 29.519531 26.125 28.292969 26.304688 26.734375 Z M 26.304688 26.734375 " fill-opacity="1" fill-rule="nonzero"/><g mask="url(#885af17df4)"><g transform="matrix(1, 0, 0, 1, 23, 26)"><g clip-path="url(#2de2fb9937)"><g clip-path="url(#40908fca2b)"><path fill="#ffffff" d="M 3.304688 0.734375 C 3.484375 2.292969 4.710938 3.519531 6.265625 3.699219 C 4.710938 3.878906 3.484375 5.109375 3.304688 6.664062 C 3.125 5.109375 1.894531 3.878906 0.339844 3.699219 C 1.894531 3.519531 3.125 2.292969 3.304688 0.734375 Z M 3.304688 0.734375 " fill-opacity="1" fill-rule="nonzero"/></g></g></g></g><g clip-path="url(#f8e476a038)"><g mask="url(#51c4eb038b)"><g transform="matrix(1, 0, 0, 1, 2, 6)"><g clip-path="url(#f916a0aed7)"><g clip-path="url(#f99455d2ec)"><path fill="#ffffff" d="M 20.761719 9.816406 C 18.261719 7.371094 16.300781 4.382812 15.058594 1.027344 C 12.636719 7.570312 7.476562 12.734375 0.933594 15.15625 C 2.988281 15.914062 4.90625 16.945312 6.644531 18.203125 C 9.871094 13.90625 14.90625 10.8125 20.761719 9.816406 Z M 20.761719 9.816406 " fill-opacity="1" fill-rule="nonzero"/></g></g></g></g></g><g clip-path="url(#b628aeb822)"><g mask="url(#5ef62dfb56)"><g transform="matrix(1, 0, 0, 1, 21, 3)"><g clip-path="url(#bf2ef15033)"><g clip-path="url(#3ff93b3bc0)"><path fill="#ffffff" d="M 10.796875 5.320312 C 9.136719 4.074219 8 2.183594 7.746094 0.015625 C 7.335938 3.585938 4.515625 6.40625 0.945312 6.816406 C 2.359375 6.980469 3.65625 7.523438 4.730469 8.339844 C 6.496094 6.941406 8.550781 5.898438 10.796875 5.320312 Z M 10.796875 5.320312 " fill-opacity="1" fill-rule="nonzero"/></g></g></g></g></g><path fill="#f4efdc" d="M 17.898438 17.417969 L 15.480469 23.945312 L 17.066406 23.945312 C 17.066406 23.945312 17.46875 22.867188 17.46875 22.867188 L 19.949219 22.867188 C 19.949219 22.867188 20.355469 23.945312 20.355469 23.945312 L 21.945312 23.945312 C 21.945312 23.945312 19.519531 17.417969 19.519531 17.417969 Z M 17.949219 21.550781 L 18.71875 19.527344 L 19.460938 21.550781 Z M 17.949219 21.550781 " fill-opacity="1" fill-rule="nonzero"/><path fill="#f4efdc" d="M 12.972656 17.417969 L 14.53125 17.417969 L 14.53125 23.945312 L 12.972656 23.945312 Z M 12.972656 17.417969 " fill-opacity="1" fill-rule="nonzero"/><g clip-path="url(#901235229f)"><g clip-path="url(#c2bb1324a6)"><g transform="matrix(1, 0, 0, 1, 28, 17)"><g clip-path="url(#f7e14e5e07)"><g clip-path="url(#883cbef9f9)"><g clip-path="url(#7529271c79)"><rect x="-36.25" width="54" fill="#0571d3" height="53.999999" y="-25.25" fill-opacity="1"/></g></g></g></g></g></g></svg>